#N canvas 200 174 483 653 10;
#X obj -31 205 snapshot~;
#X obj 106 23 tgl 15 1 empty empty empty 20 8 0 8 -225271 -1 -1 0 1
;
#X msg 125 20 loop \$1;
#X obj 13 24 tgl 15 1 empty empty empty 20 8 0 8 -225271 -1 -1 1 1
;
#X msg 31 22 sigmode \$1;
#X obj 9 101 hsl 128 15 -0.001 1 0 1 empty empty empty 20 8 0 8 -225271
-1 -1 2800 1;
#X msg 7 66 mixmode \$1;
#X text -123 -84 start;
#X text -7 -84 stop;
#X obj 6 146 line~;
#X msg 6 121 \$1 20;
#X text 3 84 mixmode (off \, mix-in \, add);
#X obj -31 225 + 1;
#X obj -138 70 loadbang;
#X obj -153 111 t b b;
#X msg -79 112 reset;
#X obj 83 145 ii 2.82e+06;
#X obj -123 -22 t b;
#X obj 49 145 ii 0;
#X obj -30 178 xrecord~ loopMaster;
#X obj -6 -40 sel 1;
#X obj -123 -42 sel 1;
#X obj -31 245 s loopMasterLength;
#X obj 8 48 hradio 15 1 0 3 empty empty empty 0 -6 0 8 -225271 -1 -1
0;
#X obj -82 70 r loopReset;
#X obj -6 -65 r stopLooperNb;
#X obj -123 -63 r recordLooperNb;
#X obj -246 -109 table loopMaster 2.82e+06;
#X obj -242 -62 catch~ loop1;
#X obj -175 371 r to-g;
#X msg -229 331 stop;
#X msg -126 277 pos \$1;
#X msg -126 255 0;
#X obj -49 304 ii 1;
#X obj -78 373 ii 0;
#X obj -256 244 r loopReset;
#X obj 23 327 r loopMasterLength;
#X text -14 305 speed;
#X obj -134 396 xgroove~ loopMaster;
#X obj 21 492 s loopMasterPos;
#X obj 22 468 vsnapshot~;
#X obj 23 426 t3_metro 1;
#X obj 23 447 t b;
#X obj 23 404 ii 1;
#X obj 23 372 + 512;
#X obj -6 -20 t b;
#X obj -30 23 t b;
#X msg -29 44 stop;
#X obj -5 1 delay 512;
#X obj -164 492 throw~ l;
#X obj -54 493 throw~ r;
#X obj -226 468 vline~;
#X obj -165 472 *~;
#X obj -115 468 vline~;
#X obj -54 472 *~;
#X msg -227 443 0 \, 1 64;
#X obj 62 370 r looperCrossfade;
#X obj 106 -83 samplerate~;
#X obj 106 1 /;
#X obj 106 -62 /;
#X obj 106 -125 r looperCrossfade;
#X obj 106 -104 t b f;
#X msg 106 -20 1000;
#X obj 106 -41 t b f;
#X floatatom -51 284 5 0 0 0 - - -;
#X obj 145 257 s lmtmp;
#X obj -158 219 t b b b;
#X floatatom 74 398 10 0 0 0 - - -;
#X msg -44 113 stop;
#X obj -80 89 t b b;
#X msg -230 288 0 64;
#X obj -254 307 delay 64;
#X obj -255 333 t b;
#X obj -255 267 t b b;
#X obj -275 82 r resetposs;
#X obj -68 259 r spss;
#X connect 0 0 12 0;
#X connect 1 0 2 0;
#X connect 2 0 19 0;
#X connect 3 0 4 0;
#X connect 4 0 19 0;
#X connect 5 0 10 0;
#X connect 6 0 19 0;
#X connect 9 0 19 1;
#X connect 10 0 9 0;
#X connect 12 0 22 0;
#X connect 13 0 15 0;
#X connect 14 0 66 0;
#X connect 14 1 0 0;
#X connect 15 0 19 0;
#X connect 16 0 19 3;
#X connect 17 0 19 0;
#X connect 18 0 19 2;
#X connect 19 0 0 0;
#X connect 20 0 45 0;
#X connect 20 0 14 0;
#X connect 21 0 17 0;
#X connect 23 0 6 0;
#X connect 24 0 69 0;
#X connect 25 0 20 0;
#X connect 26 0 21 0;
#X connect 28 0 19 0;
#X connect 29 0 38 0;
#X connect 30 0 38 0;
#X connect 31 0 38 0;
#X connect 32 0 31 0;
#X connect 33 0 38 0;
#X connect 34 0 38 1;
#X connect 35 0 73 0;
#X connect 36 0 44 0;
#X connect 38 0 52 0;
#X connect 38 0 54 0;
#X connect 38 1 40 0;
#X connect 38 4 65 0;
#X connect 40 0 39 0;
#X connect 41 0 42 0;
#X connect 42 0 40 0;
#X connect 43 0 41 0;
#X connect 44 0 38 2;
#X connect 44 0 67 0;
#X connect 45 0 48 0;
#X connect 46 0 47 0;
#X connect 47 0 19 0;
#X connect 48 0 46 0;
#X connect 51 0 52 1;
#X connect 52 0 49 0;
#X connect 53 0 54 1;
#X connect 54 0 50 0;
#X connect 55 0 51 0;
#X connect 55 0 53 0;
#X connect 56 0 44 1;
#X connect 57 0 59 0;
#X connect 58 0 48 1;
#X connect 59 0 63 0;
#X connect 60 0 61 0;
#X connect 61 0 57 0;
#X connect 61 1 59 1;
#X connect 62 0 58 0;
#X connect 63 0 62 0;
#X connect 63 1 58 1;
#X connect 64 0 38 0;
#X connect 66 0 55 0;
#X connect 66 1 38 0;
#X connect 66 2 32 0;
#X connect 68 0 19 0;
#X connect 69 0 15 0;
#X connect 69 1 68 0;
#X connect 70 0 51 0;
#X connect 70 0 53 0;
#X connect 71 0 72 0;
#X connect 72 0 30 0;
#X connect 73 0 71 0;
#X connect 73 1 70 0;
#X connect 74 0 32 0;
#X connect 75 0 64 0;
